<svg xmlns="http://www.w3.org/2000/svg" xmlns:xlink="http://www.w3.org/1999/xlink" width="300" zoomAndPan="magnify" viewBox="0 0 224.87999 225" height="300" preserveAspectRatio="xMidYMid meet" version="1.0"><defs><clipPath id="3221206f0d"><path d="M 0 0.0585938 L 224.761719 0.0585938 L 224.761719 224.9375 L 0 224.9375 Z M 0 0.0585938 " clip-rule="nonzero"/></clipPath></defs><path fill="#fcaf17" d="M 93.292969 86.847656 C 72.285156 98.976562 104.339844 159.074219 127.328125 145.800781 L 148.644531 182.71875 C 138.945312 188.320312 130.734375 191.847656 119.488281 185.421875 C 88.265625 167.570312 53.894531 108.066406 54.875 72.570312 C 55.214844 60.246094 62.476562 55.414062 71.976562 49.929688 Z M 93.292969 86.847656 " fill-opacity="1" fill-rule="evenodd"/><path fill="#fcaf17" d="M 102.105469 85.847656 C 99.835938 87.15625 96.914062 86.375 95.601562 84.105469 L 75.507812 49.300781 C 74.195312 47.027344 74.980469 44.109375 77.25 42.796875 L 87.808594 36.699219 C 90.082031 35.386719 93.003906 36.171875 94.3125 38.441406 L 114.40625 73.246094 C 115.71875 75.515625 114.933594 78.4375 112.664062 79.75 Z M 102.105469 85.847656 " fill-opacity="1" fill-rule="evenodd"/><path fill="#fcaf17" d="M 157 180.929688 C 154.730469 182.242188 151.808594 181.457031 150.5 179.1875 L 130.402344 144.382812 C 129.09375 142.113281 129.875 139.191406 132.144531 137.878906 L 142.707031 131.78125 C 144.976562 130.472656 147.898438 131.253906 149.210938 133.527344 L 169.304688 168.332031 C 170.613281 170.601562 169.832031 173.523438 167.5625 174.832031 Z M 157 180.929688 " fill-opacity="1" fill-rule="evenodd"/><g clip-path="url(#3221206f0d)"><path fill="#fcaf17" d="M 112.40625 0.0585938 L 112.40625 0.0859375 C 143.457031 0.0859375 171.558594 12.660156 191.882812 32.988281 C 212.207031 53.3125 224.78125 81.410156 224.78125 112.464844 L 224.808594 112.464844 L 224.808594 112.46875 L 224.78125 112.46875 C 224.78125 143.519531 212.207031 171.621094 191.882812 191.945312 C 171.554688 212.269531 143.457031 224.84375 112.40625 224.84375 L 112.40625 224.871094 L 112.402344 224.871094 L 112.402344 224.84375 C 81.347656 224.84375 53.25 212.269531 32.925781 191.941406 C 12.601562 171.617188 0.0273438 143.519531 0.0234375 112.46875 L 0 112.46875 L 0 112.460938 L 0.0234375 112.460938 C 0.0273438 81.410156 12.601562 53.308594 32.925781 32.984375 C 53.253906 12.664062 81.351562 0.0859375 112.402344 0.0859375 L 112.402344 0.0585938 Z M 112.40625 13.46875 L 112.40625 13.492188 L 112.402344 13.492188 L 112.402344 13.46875 C 85.09375 13.46875 60.351562 24.558594 42.425781 42.484375 C 24.5 60.410156 13.410156 85.15625 13.410156 112.464844 L 13.433594 112.464844 L 13.433594 112.46875 L 13.410156 112.46875 C 13.410156 139.773438 24.5 164.519531 42.425781 182.441406 C 60.351562 200.367188 85.097656 211.460938 112.40625 211.460938 L 112.40625 211.433594 L 112.410156 211.433594 L 112.410156 211.460938 C 139.714844 211.460938 164.460938 200.371094 182.382812 182.445312 C 200.308594 164.519531 211.402344 139.769531 211.402344 112.464844 L 211.375 112.464844 L 211.375 112.460938 L 211.402344 112.460938 C 211.402344 85.152344 200.3125 60.410156 182.386719 42.484375 C 164.460938 24.558594 139.710938 13.46875 112.40625 13.46875 Z M 112.40625 13.46875 " fill-opacity="1" fill-rule="nonzero"/></g></svg>